<?xml version="1.0" standalone="no"?>
<!DOCTYPE svg PUBLIC "-//W3C//DTD SVG 20010904//EN"
 "http://www.w3.org/TR/2001/REC-SVG-20010904/DTD/svg10.dtd">
<svg version="1.0" xmlns="http://www.w3.org/2000/svg"
 width="2542.000000pt" height="668.000000pt" viewBox="0 0 2542.000000 668.000000"
 preserveAspectRatio="xMidYMid meet">

<g transform="translate(0.000000,668.000000) scale(0.100000,-0.100000)"
fill="#000000" stroke="none">
<path d="M14620 6665 c-136 -38 -255 -126 -312 -231 -66 -122 -79 -238 -41
-374 32 -117 42 -128 575 -637 279 -267 508 -491 508 -498 0 -7 -7 -29 -15
-48 -19 -46 -19 -88 1 -157 27 -91 29 -120 9 -120 -9 0 -44 -26 -78 -57 -135
-126 -121 -117 -155 -98 l-30 18 -82 -72 -83 -71 -108 0 c-75 0 -110 4 -116
13 -17 26 -184 177 -284 257 -233 187 -573 380 -853 485 -66 25 -125 50 -130
56 -8 8 -1 19 24 38 84 63 230 220 255 272 45 98 23 169 -54 169 -48 0 -66
-13 -107 -82 -61 -102 -214 -249 -268 -259 -42 -8 -312 265 -436 440 -123 175
-185 273 -249 393 -75 143 -107 180 -169 198 -66 19 -177 23 -263 10 -220 -32
-384 -85 -598 -196 -351 -182 -631 -425 -828 -719 -79 -119 -93 -144 -136
-250 -42 -106 -52 -156 -42 -222 6 -42 14 -55 71 -109 l65 -61 -53 -35 c-97
-64 -262 -197 -370 -298 l-106 -100 -361 0 -361 0 0 39 c0 43 -26 71 -65 71
-48 0 -124 -32 -168 -70 l-45 -40 -4438 -2 -4439 -3 -60 -28 c-111 -52 -189
-150 -214 -267 -9 -41 -11 -511 -9 -1891 l3 -1836 40 -79 c47 -91 110 -150
199 -183 l57 -21 12152 2 12152 3 55 28 c76 39 143 108 177 181 l28 61 0 1880
0 1880 -33 67 c-38 78 -100 138 -182 177 l-55 26 -4027 5 -4026 5 -84 79
c-159 152 -148 134 -148 227 0 62 -5 89 -19 113 -10 17 -21 61 -25 101 -11
110 -45 169 -121 208 -18 9 -40 35 -55 63 -41 78 -63 89 -188 89 -98 0 -112
-2 -164 -29 -31 -15 -61 -27 -67 -25 -19 7 -1002 931 -1038 977 -17 21 -16 87
1 121 33 64 87 73 212 37 60 -17 119 -8 166 25 84 60 76 206 -15 286 -79 69
-256 101 -377 68z m209 -114 c34 -11 77 -31 97 -46 31 -24 35 -31 32 -68 -3
-37 -6 -42 -35 -51 -25 -7 -43 -4 -82 13 -97 42 -221 22 -282 -45 -55 -62 -75
-173 -43 -237 30 -58 100 -141 175 -207 41 -36 187 -173 324 -305 138 -132
317 -303 398 -379 81 -76 147 -145 147 -152 0 -13 -80 -54 -106 -54 -8 0 -68
51 -133 113 -66 61 -254 238 -418 392 -460 431 -497 469 -523 540 -47 131 -33
247 46 362 85 124 245 173 403 124z m-2793 -399 c6 -4 39 -61 72 -127 63 -125
139 -247 247 -395 36 -48 65 -94 65 -101 0 -9 -43 -30 -108 -53 -147 -54 -304
-133 -448 -227 -66 -44 -128 -79 -136 -79 -9 0 -48 41 -88 91 -40 50 -148 168
-241 264 -93 95 -169 179 -169 187 0 15 64 79 120 120 70 50 295 181 379 220
71 33 273 108 291 108 3 0 10 -4 16 -8z m774 -662 c22 -14 10 -19 -81 -35
-100 -18 -189 -43 -189 -53 0 -15 267 -272 282 -272 22 0 167 38 210 55 36 14
38 14 49 -7 9 -18 8 -24 -6 -34 -33 -25 -183 -73 -306 -99 -212 -44 -394 -95
-620 -171 -415 -139 -641 -273 -890 -525 -115 -116 -117 -117 -128 -92 -10 22
-8 27 12 43 13 11 52 72 86 137 86 163 175 286 316 431 290 300 623 507 954
592 131 33 283 48 311 30z m3170 -387 c33 -22 38 -31 51 -80 10 -38 15 -42 49
-48 73 -12 100 -57 105 -175 2 -41 9 -93 16 -115 34 -113 -47 -245 -178 -290
-56 -19 -68 -10 -41 34 58 95 95 201 69 201 -6 0 -34 -32 -62 -70 -85 -118
-170 -167 -213 -124 -27 27 -18 54 38 115 53 57 116 170 116 209 0 11 -1 20
-3 20 -1 0 -39 -36 -84 -80 -86 -85 -122 -100 -143 -61 -28 54 6 147 85 232
59 64 78 103 71 148 -14 77 -12 84 14 92 44 12 85 9 110 -8z m-5097 -133 c94
-89 215 -224 290 -323 31 -41 35 -51 26 -74 -16 -43 -49 -82 -63 -77 -8 3 -36
33 -62 67 -27 34 -123 138 -213 230 l-165 168 18 52 c31 87 32 86 169 -43z
m2458 68 c23 -18 44 -38 46 -45 3 -7 -13 -21 -35 -32 -55 -28 -70 -71 -32 -91
15 -8 27 -7 49 5 37 19 103 19 139 1 42 -22 115 -104 183 -208 138 -209 224
-462 231 -683 3 -76 2 -80 -19 -83 -13 -2 -76 8 -140 23 -65 14 -152 29 -193
33 l-75 7 -27 54 c-30 60 -78 115 -118 136 -19 10 -38 11 -74 4 -27 -5 -52
-12 -55 -15 -3 -3 15 -25 40 -47 59 -53 79 -85 81 -128 2 -48 -14 -73 -61 -94
-31 -14 -41 -24 -41 -42 0 -28 33 -63 60 -63 30 0 101 30 133 56 64 53 209 57
350 10 88 -29 165 -33 244 -12 66 18 135 51 174 83 26 22 30 23 36 7 19 -49
-61 -223 -145 -315 -165 -179 -406 -230 -634 -135 -12 6 -23 -7 -49 -56 -43
-82 -172 -212 -265 -266 -106 -63 -207 -86 -358 -79 -137 5 -215 27 -294 82
-66 45 -62 58 18 61 141 5 239 72 326 224 72 126 173 218 294 266 60 25 74 49
44 79 -14 13 -27 15 -63 10 -135 -19 -286 -144 -359 -296 -65 -138 -157 -199
-280 -186 -101 11 -185 65 -275 177 -10 13 -12 12 -15 -7 -5 -32 54 -175 100
-243 133 -201 425 -308 698 -257 124 24 289 107 379 193 65 61 71 64 118 64
47 0 51 2 80 44 l31 44 109 4 c59 2 112 0 118 -4 27 -23 -113 -220 -220 -312
-185 -157 -384 -228 -635 -227 -260 1 -491 79 -722 244 -137 98 -224 184 -237
235 -13 46 -21 51 -42 25 -46 -55 -195 -71 -284 -29 -55 25 -119 90 -141 142
-40 95 9 190 113 220 29 8 55 19 58 25 4 5 -6 21 -20 35 -23 23 -33 26 -76 22
-60 -6 -68 2 -79 79 -35 260 298 641 759 870 127 62 140 71 101 66 -71 -9
-154 -39 -305 -113 -344 -166 -603 -396 -725 -642 -73 -148 -78 -278 -14 -383
19 -32 34 -66 34 -76 0 -28 -38 -24 -91 10 -101 65 -134 133 -134 276 0 92 3
106 36 180 53 122 102 190 224 310 163 162 355 291 590 398 160 73 490 178
725 232 211 48 418 111 480 145 50 28 82 25 131 -12z m2427 -45 c2 -7 -23 -41
-56 -75 -80 -86 -107 -144 -107 -233 0 -60 6 -81 38 -146 20 -42 37 -82 37
-89 0 -25 43 -71 88 -94 55 -28 107 -80 97 -95 -3 -6 -21 -17 -38 -25 -18 -7
-53 -32 -79 -55 -25 -22 -52 -41 -60 -41 -7 0 -31 25 -53 56 -22 31 -75 104
-117 162 -43 58 -78 112 -78 119 0 7 9 30 20 50 27 51 25 77 -10 147 -36 70
-38 122 -9 182 19 40 78 97 127 123 54 29 191 38 200 14z m-2057 -48 c305
-136 606 -338 863 -578 l110 -102 74 -5 75 -5 -84 -58 c-46 -31 -93 -57 -104
-57 -12 0 -48 28 -85 66 -192 195 -440 381 -683 514 -70 39 -108 67 -134 100
-20 25 -66 75 -102 113 -36 37 -62 67 -59 67 4 0 62 -25 129 -55z m-2891 -328
c-3 -2 -42 -29 -87 -61 -128 -88 -258 -197 -374 -311 l-107 -105 -390 0 c-315
0 -392 3 -401 14 -6 7 -14 34 -17 60 l-7 46 378 0 378 0 101 98 c116 112 212
192 346 286 l94 67 45 -45 c25 -25 43 -47 41 -49z m5606 -334 c82 -75 219
-203 304 -283 86 -80 257 -239 380 -355 307 -285 390 -368 390 -387 0 -28 -50
-78 -77 -78 -18 0 -69 43 -201 173 -97 94 -323 307 -502 472 -393 363 -540
504 -540 518 0 18 62 77 80 77 9 0 84 -62 166 -137z m-1065 80 c18 -27 66 -92
106 -146 40 -54 73 -101 73 -106 0 -5 9 -19 19 -33 38 -48 36 -71 -9 -111 -52
-48 -60 -44 -146 80 -37 54 -95 135 -130 180 -35 45 -64 91 -64 102 0 25 67
81 97 81 15 0 32 -15 54 -47z m-6026 -130 c13 -87 42 -160 98 -250 31 -48 65
-110 75 -138 l20 -50 -59 -145 c-32 -80 -62 -152 -68 -161 -7 -12 -33 -18 -98
-23 -253 -20 -591 -131 -846 -279 -54 -31 -108 -57 -119 -57 -32 0 -87 39 -94
67 -4 14 -4 62 -2 107 7 100 27 138 120 218 194 167 408 299 628 383 94 37
104 35 115 -22 13 -70 76 -173 106 -173 28 0 30 27 8 93 -19 55 -20 76 -15
177 9 153 21 211 57 259 41 57 65 55 74 -6z m-210 10 c-3 -10 -11 -37 -18 -60
l-11 -43 -4356 0 c-2957 0 -4369 -4 -4400 -11 -59 -14 -108 -52 -131 -105 -19
-41 -19 -97 -17 -1877 l3 -1835 31 -39 c16 -21 50 -48 74 -61 l44 -22 12084 0
c9513 0 12093 3 12126 12 52 16 108 72 124 124 16 55 18 3608 1 3667 -12 44
-59 101 -103 125 -29 16 -283 17 -3931 20 l-3901 2 -64 60 -65 59 3985 -2
3985 -2 50 -27 c60 -32 115 -87 147 -148 l23 -45 0 -1870 0 -1870 -24 -49
c-29 -60 -85 -117 -143 -148 l-43 -23 -12144 -3 -12143 -2 -59 26 c-68 31
-130 93 -162 162 l-22 47 -3 1829 c-3 2010 -6 1898 57 1990 38 55 93 96 156
118 47 16 304 17 4454 18 4189 0 4403 -1 4396 -17z m7019 -48 l59 -55 -174 0
c-194 0 -195 1 -66 59 36 16 68 34 71 40 15 24 53 8 110 -44z m-6427 -417 c18
-13 33 -28 33 -34 0 -6 -20 -53 -44 -105 -24 -52 -60 -140 -81 -196 -28 -76
-43 -103 -55 -103 -26 0 -70 39 -70 61 0 36 142 378 163 391 17 11 17 11 54
-14z m-7992 -1184 c377 -599 689 -1090 693 -1091 4 -2 317 491 696 1095 379
603 691 1099 693 1101 8 11 12 -15 32 -184 11 -99 88 -758 170 -1465 82 -707
151 -1301 153 -1320 l3 -34 -225 -37 c-124 -20 -227 -35 -229 -33 -2 2 -49
388 -104 858 -56 470 -103 853 -106 851 -4 -2 -247 -386 -541 -854 -294 -468
-537 -850 -540 -851 -3 0 -248 385 -545 856 -296 471 -540 852 -542 848 -1 -5
-48 -391 -103 -858 -55 -467 -101 -850 -103 -851 -4 -4 -445 70 -450 75 -3 3
8 115 23 250 16 135 92 790 170 1455 161 1386 150 1299 161 1288 5 -5 318
-500 694 -1099z m4530 1091 c335 -55 624 -203 865 -445 331 -330 494 -769 459
-1231 -53 -707 -556 -1277 -1262 -1431 -88 -19 -131 -22 -312 -22 -237 0 -327
14 -516 80 -401 139 -733 441 -914 829 -109 233 -153 458 -142 729 10 242 63
445 173 656 233 449 678 768 1167 839 103 14 383 12 482 -4z m1935 -199 c0 -5
-11 -37 -24 -71 -19 -47 -26 -85 -30 -169 -4 -108 -4 -109 22 -132 15 -14 47
-43 72 -65 41 -37 49 -41 88 -36 24 3 83 26 133 51 50 26 96 46 103 44 6 -2
329 -329 717 -727 l704 -723 3 576 c1 317 4 576 5 576 2 0 53 -17 113 -39 60
-21 162 -53 227 -71 l117 -33 0 -1076 0 -1075 -66 64 c-36 36 -484 496 -997
1022 l-932 957 -3 -929 -2 -930 -23 -5 c-12 -3 -105 -18 -207 -35 -102 -17
-195 -32 -207 -35 l-23 -5 0 1542 0 1543 105 -105 c58 -58 105 -109 105 -114z
m10116 203 c653 -91 1184 -592 1326 -1253 30 -137 32 -454 5 -591 -130 -653
-615 -1142 -1262 -1272 -139 -27 -464 -25 -602 5 -498 108 -897 420 -1113 867
-146 304 -190 651 -125 993 54 285 210 575 427 796 l108 110 67 -64 c38 -35
104 -99 149 -141 44 -42 90 -80 102 -83 52 -17 180 74 215 154 37 82 32 92
-100 217 -95 91 -115 115 -103 123 55 37 296 113 430 135 94 16 373 18 476 4z
m-7868 -92 c-2 -11 -9 -11 -38 2 l-35 15 35 5 c36 6 44 2 38 -22z m12351 -601
c272 -334 497 -604 502 -599 4 4 132 280 285 613 152 333 279 608 283 611 3 4
100 -34 214 -85 154 -67 207 -95 204 -106 -4 -13 -1276 -2802 -1281 -2807 -3
-3 -469 77 -473 80 -1 2 122 271 273 600 l274 596 -568 703 c-313 387 -571
708 -575 715 -5 7 58 68 170 163 138 117 180 148 188 137 5 -7 232 -286 504
-621z m-2259 -641 l0 -1265 691 0 c549 0 690 -3 686 -13 -2 -6 -37 -112 -78
-234 l-74 -223 -847 0 -848 0 0 1463 0 1464 208 35 c114 20 219 36 235 37 l27
1 0 -1265z m-4994 1231 c183 -62 348 -185 451 -336 99 -146 143 -282 150 -466
8 -198 -29 -345 -129 -511 -102 -170 -297 -316 -503 -379 -87 -27 -100 -28
-357 -32 l-268 -4 -2 -576 -3 -576 -220 -38 c-121 -20 -226 -37 -232 -37 -10
-1 -13 245 -13 1199 0 1134 1 1201 18 1207 9 3 85 35 167 70 251 107 505 253
723 415 64 48 124 87 133 88 8 0 47 -11 85 -24z m-4086 -309 c0 -5 -10 -7 -22
-3 -13 3 -30 6 -38 6 -10 1 -8 7 10 21 23 20 25 20 37 3 7 -10 13 -22 13 -27z
m2250 -398 c0 -62 -96 -380 -175 -579 -80 -203 -273 -570 -406 -775 -47 -74
-66 -95 -84 -95 -26 0 -78 36 -196 137 -47 40 -94 73 -103 73 -10 0 -89 -36
-177 -80 -88 -44 -166 -80 -173 -80 -37 0 -259 189 -277 237 -6 15 1 68 20
165 62 305 66 348 65 686 0 261 2 312 14 312 7 0 45 -18 83 -40 229 -134 442
-186 723 -177 236 7 368 47 561 171 55 35 106 64 113 65 6 1 12 -8 12 -20z
m219 -174 c232 -588 96 -1241 -353 -1691 -228 -227 -481 -365 -803 -436 -83
-18 -130 -22 -308 -22 -182 0 -224 3 -315 22 -426 93 -772 328 -1007 684 -240
365 -317 802 -217 1231 9 37 19 69 23 71 3 2 31 0 61 -5 30 -5 134 -16 230
-25 96 -9 176 -17 178 -18 1 -2 -7 -28 -17 -58 -10 -30 -26 -97 -35 -148 -51
-298 25 -606 209 -852 177 -236 431 -390 715 -433 596 -91 1155 311 1265 910
12 62 35 131 74 220 110 246 191 481 222 639 11 58 12 59 25 35 7 -13 31 -69
53 -124z"/>
<path d="M11733 4962 c-145 -125 -350 -361 -379 -436 -3 -9 58 27 137 80 78
53 205 127 283 165 77 39 142 72 144 74 12 12 -88 175 -108 175 -5 0 -40 -26
-77 -58z"/>
<path d="M12384 4646 c-38 -17 -90 -81 -109 -136 -25 -72 -15 -220 15 -220 4
0 10 28 14 62 8 78 36 137 88 184 39 35 43 36 99 31 45 -4 59 -2 63 10 10 26
6 42 -16 63 -26 24 -105 27 -154 6z"/>
<path d="M13521 4554 c-81 -68 19 -179 103 -113 38 30 36 79 -5 113 -17 14
-39 26 -49 26 -10 0 -32 -12 -49 -26z"/>
<path d="M12603 4196 c-60 -27 -71 -90 -24 -136 36 -36 73 -46 112 -30 42 18
61 57 48 104 -16 58 -79 87 -136 62z"/>
<path d="M11754 4014 c-27 -14 -64 -37 -82 -50 -27 -21 -30 -28 -22 -45 6 -10
18 -19 26 -19 16 0 122 57 158 85 19 14 19 15 1 35 -23 25 -22 25 -81 -6z"/>
<path d="M11790 3899 c-41 -21 -86 -50 -99 -64 l-25 -25 20 -20 20 -21 94 55
c51 30 97 57 103 59 13 4 -7 43 -26 50 -7 3 -47 -12 -87 -34z"/>
<path d="M8580 3594 c-111 -90 -244 -216 -262 -248 -11 -21 -23 -29 162 110
58 44 133 97 167 119 35 22 65 46 68 53 5 15 -11 52 -23 52 -4 0 -54 -39 -112
-86z"/>
<path d="M8647 3465 c-127 -79 -288 -206 -276 -219 3 -3 66 29 140 71 74 42
162 89 195 104 34 15 64 34 66 41 8 19 -9 58 -24 58 -7 0 -52 -25 -101 -55z"/>
<path d="M5860 3229 c-232 -30 -470 -150 -642 -323 -423 -426 -429 -1112 -14
-1545 287 -298 694 -412 1093 -306 607 161 963 815 768 1410 -97 295 -300 527
-580 661 -202 97 -408 131 -625 103z"/>
<path d="M17937 3229 c-471 -69 -845 -417 -943 -879 -22 -102 -25 -334 -6
-425 64 -302 233 -558 473 -718 201 -133 390 -190 629 -189 180 1 325 35 485
115 314 157 535 447 600 791 18 94 21 282 6 376 -59 360 -297 677 -624 830
-195 92 -423 128 -620 99z"/>
<path d="M14880 2745 l0 -495 223 0 c160 0 237 4 276 15 123 32 226 106 293
209 156 242 73 571 -179 709 -91 49 -147 57 -390 57 l-223 0 0 -495z"/>
<path d="M13444 2685 l-51 -23 -42 -119 c-24 -65 -46 -121 -50 -124 -3 -4 -66
31 -139 77 -73 46 -139 84 -146 84 -8 0 -84 -31 -171 -70 -87 -38 -162 -70
-167 -70 -7 0 -8 31 -4 88 l7 87 -47 18 c-26 9 -48 16 -49 15 -5 -7 -64 -383
-60 -386 2 -2 110 44 241 103 l237 106 166 -110 c91 -61 169 -107 172 -103 4
4 41 99 82 212 41 113 78 213 82 223 9 22 2 21 -61 -8z"/>
<path d="M12872 2258 c-63 -69 -52 -178 19 -178 38 0 74 36 88 88 12 42 2 89
-22 104 -23 15 -64 8 -85 -14z"/>
<path d="M12746 1971 c-36 -38 -47 -108 -22 -146 23 -35 64 -33 101 5 36 38
47 120 20 150 -26 29 -66 25 -99 -9z"/>
<path d="M25238 4074 c-86 -46 -50 -184 47 -184 47 0 71 13 90 50 48 94 -44
185 -137 134z m94 -18 c42 -31 40 -113 -2 -136 -53 -28 -120 11 -120 70 0 61
76 102 122 66z"/>
<path d="M25250 3991 c0 -28 5 -51 10 -51 6 0 10 9 10 20 0 12 7 20 16 20 9 0
18 -9 21 -20 3 -11 12 -20 20 -20 8 0 11 5 7 11 -4 7 -7 28 -8 48 -1 34 -3 36
-38 39 l-38 3 0 -50z m60 19 c0 -5 -9 -10 -20 -10 -11 0 -20 5 -20 10 0 6 9
10 20 10 11 0 20 -4 20 -10z"/>
</g>
</svg>
